<svg viewBox="0 0 596.000000 393.000000" xmlns="http://www.w3.org/2000/svg" fill="currentColor">
<g transform="translate(0.000000,393.000000) scale(0.100000,-0.100000)">
<path d="M220 3924 c-43 -8 -81 -26 -77 -37 2 -6 27 -19 57 -29 66 -22 103
-56 134 -123 52 -111 57 -190 20 -372 -23 -116 -24 -142 -19 -278 5 -114 3
-167 -8 -220 -17 -80 -14 -95 18 -95 38 0 64 41 110 175 30 84 32 123 37 655
1 89 -23 190 -58 243 -37 57 -137 94 -214 81z"/>
<path d="M755 3136 c-38 -16 -90 -67 -112 -110 -10 -18 -17 -55 -17 -89 -1
-50 3 -62 23 -78 65 -53 202 10 245 113 23 54 21 133 -4 158 -24 24 -88 26
-135 6z"/>
<path d="M1242 2769 c-115 -24 -292 -88 -292 -106 0 -10 14 -11 63 -5 116 13
217 7 287 -17 79 -28 133 -25 320 19 108 25 130 28 165 18 22 -7 70 -12 107
-12 58 -1 72 3 109 29 66 47 63 55 -28 55 -43 0 -105 7 -139 15 -53 12 -68 12
-115 0 -75 -20 -163 -18 -237 5 -78 24 -120 24 -240 -1z"/>
<path d="M415 2686 c-56 -26 -108 -77 -125 -120 -16 -44 -2 -90 53 -174 77
-119 91 -155 92 -249 1 -45 4 -86 8 -90 12 -12 61 31 87 78 21 37 25 57 25
129 0 92 -3 101 -70 205 -54 83 -58 126 -20 190 35 61 26 67 -50 31z"/>
<path d="M792 2694 c-48 -34 -122 -225 -122 -316 0 -82 18 -124 88 -201 162
-180 160 -315 -7 -567 -55 -82 -72 -140 -78 -255 -4 -80 0 -119 17 -195 31
-136 36 -261 15 -400 -18 -123 -15 -204 10 -301 25 -93 20 -127 -45 -291 -33
-83 -58 -154 -55 -156 11 -12 58 12 103 54 60 53 107 141 123 228 8 43 8 97 0
190 -12 148 -4 235 32 331 18 51 22 81 22 195 0 117 -4 149 -28 240 -24 86
-28 120 -25 186 4 75 8 87 57 175 104 188 134 259 135 319 0 71 -17 103 -115
211 -108 121 -111 128 -117 284 -4 124 4 193 33 268 9 22 -12 23 -43 1z"/>
<path d="M2106 2438 c-26 -37 -18 -88 15 -88 59 0 97 53 64 90 -24 26 -60 25
-79 -2z"/>
<path d="M2246 2438 c-21 -29 -20 -51 2 -71 24 -22 55 -21 75 1 22 24 21 55
-1 75 -26 23 -58 21 -76 -5z"/>
<path d="M1905 2310 c-68 -10 -103 -30 -147 -83 -58 -70 -73 -185 -69 -548 1
-79 5 -101 20 -120 l19 -23 21 34 c16 27 21 51 21 106 0 41 5 77 13 86 13 17
134 33 153 20 6 -4 11 -27 10 -52 0 -25 0 -80 2 -122 2 -71 4 -78 22 -78 11 0
29 9 41 21 20 20 20 27 17 377 -2 196 -8 365 -12 375 -9 18 -27 19 -111 7z
m26 -87 c0 -27 2 -128 5 -225 l4 -178 -74 0 -74 0 -7 60 c-10 90 4 267 27 320
23 55 42 70 85 70 33 0 33 -1 34 -47z"/>
<path d="M2201 2296 c-23 -25 -23 -27 -29 -384 -5 -393 -5 -399 49 -346 l29
29 4 345 c4 389 1 413 -53 356z"/>
<path d="M2516 2301 c-43 -29 -89 -108 -94 -162 -6 -61 19 -107 103 -189 111
-108 136 -186 92 -282 -40 -87 -94 -98 -146 -32 -22 28 -29 97 -12 123 14 21
2 41 -25 41 -37 0 -46 -28 -34 -112 12 -88 41 -122 113 -133 81 -12 173 59
202 157 32 109 15 178 -63 261 -31 32 -69 66 -84 75 -29 17 -41 45 -54 128 -5
34 -2 45 21 72 19 22 35 32 56 32 35 0 51 -27 55 -94 3 -56 16 -75 39 -56 10
8 15 30 15 66 0 45 -5 59 -28 85 -37 41 -111 51 -156 20z"/>
<path d="M1338 2298 c-22 -18 -48 -716 -26 -729 15 -10 221 -12 256 -3 12 4
22 14 22 24 0 15 -11 17 -94 16 -52 -1 -98 2 -102 6 -4 5 -2 149 5 320 9 235
9 321 0 346 -12 34 -34 41 -61 20z"/>
<path d="M630 1914 c-25 -7 -85 -18 -135 -24 -49 -6 -133 -15 -185 -21 -131
-15 -189 -39 -243 -99 -52 -57 -72 -119 -64 -190 9 -76 37 -118 146 -219 184
-169 260 -320 318 -629 4 -24 13 -43 18 -44 36 -4 82 213 70 327 -22 202 -108
355 -243 431 -97 55 -121 76 -147 127 -49 98 -26 185 53 206 20 6 105 15 187
20 210 14 345 56 353 109 3 20 -1 22 -40 21 -24 0 -63 -7 -88 -15z"/>
<path d="M3099 1364 c-11 -14 -14 -63 -16 -248 -2 -233 -12 -414 -21 -386 -2
8 -17 42 -32 75 -15 33 -32 78 -39 100 -13 41 -111 259 -158 350 -33 65 -71
105 -99 105 -39 0 -46 -21 -40 -132 2 -57 4 -114 4 -128 -1 -14 -1 -135 -2
-269 -1 -254 5 -292 37 -214 12 31 14 86 13 296 -1 228 3 293 17 277 2 -3 17
-36 32 -75 15 -38 49 -117 75 -175 97 -214 130 -289 130 -295 0 -4 9 -20 21
-36 24 -35 72 -40 88 -10 10 18 17 183 25 573 3 126 0 182 -8 194 -11 14 -13
14 -27 -2z"/>
<path d="M2223 1348 c-30 -33 -33 -69 -34 -339 -1 -227 1 -248 21 -301 18 -48
29 -62 64 -83 60 -35 97 -40 137 -19 102 52 127 95 140 238 5 56 9 137 8 181
-1 44 2 140 6 213 8 130 8 132 -13 132 -12 0 -26 -8 -31 -19 -6 -10 -10 -119
-10 -257 -1 -303 -14 -376 -76 -434 l-26 -25 -36 20 c-20 11 -45 31 -55 45
-29 40 -39 174 -28 404 8 174 7 204 -7 233 -18 39 -32 41 -60 11z"/>
<path d="M3495 1360 c-33 -3 -73 -14 -90 -22 -42 -22 -91 -76 -109 -118 -30
-72 -42 -253 -34 -502 2 -78 7 -101 21 -115 17 -17 19 -17 33 2 18 24 21 39
29 137 l7 77 41 6 c23 4 60 5 82 3 l40 -3 3 -115 c1 -63 5 -121 7 -127 6 -18
26 -16 53 5 l23 18 -1 339 c0 187 -4 358 -8 380 -8 45 -11 46 -97 35z m9 -62
c3 -13 4 -115 3 -227 l-2 -204 -73 -4 -74 -5 4 174 c3 151 6 179 25 221 22 47
46 65 90 66 16 1 24 -6 27 -21z"/>
<path d="M4261 1358 c-28 -10 -32 -35 -28 -168 2 -63 0 -210 -4 -326 -4 -116
-4 -224 0 -240 7 -28 10 -29 67 -28 76 1 124 26 192 98 77 81 98 137 112 295
16 194 -20 279 -150 346 -39 20 -158 35 -189 23z m149 -50 c58 -30 80 -70 91
-166 11 -90 -4 -271 -28 -347 -29 -92 -94 -165 -147 -165 -20 0 -20 22 -5 333
9 173 8 243 0 288 -7 33 -9 64 -6 69 10 16 48 11 95 -12z"/>
<path d="M5330 1360 c-83 -10 -140 -46 -186 -116 -30 -44 -45 -173 -45 -389 0
-209 7 -265 35 -265 23 0 45 65 49 142 2 43 7 81 11 85 4 4 41 7 83 8 l76 0 4
-120 c2 -66 8 -124 13 -129 6 -6 20 -2 37 11 l28 20 0 365 c0 295 -3 368 -14
381 -7 10 -19 16 -25 16 -6 -1 -36 -5 -66 -9z m10 -100 c3 -30 5 -131 5 -223
l0 -169 -72 -4 -71 -5 -7 76 c-10 102 6 271 31 321 20 41 56 66 89 62 17 -3
21 -13 25 -58z"/>
<path d="M5608 1341 c-32 -37 -38 -104 -34 -381 3 -246 13 -286 85 -334 62
-41 111 -41 178 3 40 26 57 45 74 85 21 46 24 73 30 276 4 124 11 258 15 297
6 63 4 73 -10 79 -42 16 -47 -9 -50 -282 -5 -311 -19 -390 -80 -430 -23 -14
-27 -14 -66 6 -68 35 -74 60 -75 300 0 113 2 237 4 276 3 71 -10 123 -35 131
-6 2 -23 -9 -36 -26z"/>
<path d="M1301 1346 c-10 -12 -11 -19 -2 -29 7 -9 12 -126 13 -363 l3 -349 75
-3 c103 -4 151 11 215 70 61 56 90 121 79 179 -14 71 -53 138 -97 166 -23 15
-44 28 -46 30 -2 1 17 25 42 52 57 61 71 124 41 181 -29 53 -76 72 -203 78
-90 4 -108 2 -120 -12z m189 -41 c86 -45 76 -146 -25 -248 -73 -74 -75 -71
-72 108 l2 155 33 0 c18 0 46 -7 62 -15z m21 -328 c65 -43 105 -170 75 -242
-27 -63 -100 -107 -164 -97 l-32 4 0 154 c0 85 4 154 9 154 5 0 19 11 32 25
30 30 37 31 80 2z"/>
<path d="M1895 1349 c-22 -4 -52 -11 -67 -14 l-28 -7 0 -212 c-1 -116 -1 -224
-2 -241 -3 -100 7 -275 16 -276 63 -3 223 4 243 12 19 7 23 14 17 32 -9 32
-11 32 -46 13 -22 -12 -49 -16 -83 -14 l-50 3 -1 100 c-1 55 2 108 8 118 7 13
22 17 74 17 57 0 65 2 62 18 -3 14 -14 17 -65 17 -34 0 -64 2 -67 5 -8 9 -9
367 -1 381 5 7 31 10 73 7 54 -2 67 0 76 15 9 14 8 20 -4 27 -18 11 -98 11
-155 -1z"/>
<path d="M3720 1346 c0 -10 5 -27 11 -38 7 -13 12 -135 13 -359 2 -371 3 -380
53 -342 l28 20 0 336 c0 184 3 338 7 342 3 4 24 9 46 12 123 17 156 -112 72
-286 -17 -34 -30 -68 -30 -76 0 -8 -6 -18 -13 -22 -21 -13 -47 -56 -47 -78 0
-30 195 -265 219 -265 23 0 33 53 18 85 -18 37 -68 103 -124 163 -24 24 -43
47 -43 50 0 3 15 24 34 47 19 23 55 82 80 131 53 102 61 165 26 221 -32 53
-67 64 -216 70 -122 5 -134 4 -134 -11z"/>
<path d="M4815 1349 c-22 -4 -52 -11 -67 -15 l-28 -6 -1 -222 c-1 -121 0 -266
1 -321 2 -55 4 -120 4 -144 l1 -45 107 3 c137 3 164 10 160 41 -4 34 -8 35
-44 16 -22 -12 -49 -16 -83 -14 l-50 3 -3 97 c-4 130 1 138 84 138 57 0 65 2
62 18 -3 14 -14 17 -65 17 -34 0 -64 2 -67 5 -8 8 -9 367 -1 380 5 8 29 11 73
8 54 -2 67 0 76 15 9 14 8 20 -4 27 -18 11 -98 11 -155 -1z"/>
</g>
</svg>
