<svg xmlns="http://www.w3.org/2000/svg" viewBox="0 0 50 50">
<defs><clipPath id="__lottie_element_2">
<rect width="50" height="50" x="0" y="0"></rect>
</clipPath></defs
><g clip-path="url(#__lottie_element_2)"><g transform="matrix(1,0,0,1,0,0)" opacity="1" style="display: none;"><g opacity="1" transform="matrix(1,0,0,1,26.304000854492188,25)"><path stroke-linecap="butt" stroke-linejoin="miter" fill-opacity="0" stroke-miterlimit="10" stroke-opacity="1" stroke-width="2" d=" M-17.304000854492188,-16 C-17.304000854492188,-16 14.696000099182129,-16 14.696000099182129,-16 C14.696000099182129,-16 14.696000099182129,16 14.696000099182129,16 C14.696000099182129,16 -17.304000854492188,16 -17.304000854492188,16 C-17.304000854492188,16 -17.304000854492188,-16 -17.304000854492188,-16z"></path></g></g><g style="display: block;" transform="matrix(1,0,0,1,0,0)" opacity="1"><g opacity="1" transform="matrix(1,0,0,1,26.304000854492188,25)"><path stroke-linecap="butt" stroke-linejoin="miter" fill-opacity="0" stroke-miterlimit="10" stroke="currentColor" stroke-opacity="1" stroke-width="2" d=" M-15.303999900817871,-18.009000778198242 C-15.303999900817871,-18.009000778198242 0,-9.005000114440918 0,-9.005000114440918 C0,-9.005000114440918 15.303999900817871,0 15.303999900817871,0 C15.303999900817871,0 -15.303999900817871,18.009000778198242 -15.303999900817871,18.009000778198242 C-15.303999900817871,18.009000778198242 -15.303999900817871,-18.009000778198242 -15.303999900817871,-18.009000778198242z"></path></g></g></g></svg>